<svg width="135" height="40" viewBox="0 0 135 40" fill="none" xmlns="http://www.w3.org/2000/svg">
<g clip-path="url(#clip0_15_1747)">
<path d="M130.2 40H4.73C3.47634 39.9974 2.27478 39.4982 1.3883 38.6117C0.501828 37.7252 0.00264208 36.5237 0 35.27L0 4.73C0 3.47553 0.498338 2.27243 1.38538 1.38538C2.27243 0.498338 3.47553 2.71788e-08 4.73 2.71788e-08H130.2C131.461 -0.000134071 132.671 0.495959 133.57 1.38105C134.468 2.26614 134.982 3.46913 135 4.73V35.27C134.982 36.5309 134.468 37.7339 133.57 38.6189C132.671 39.504 131.461 40.0001 130.2 40Z" fill="#CCCCCC"/>
<path d="M134 35.2701C134 36.2859 133.596 37.2601 132.878 37.9784C132.16 38.6966 131.186 39.1001 130.17 39.1001H4.73001C4.2262 39.1015 3.72709 39.0034 3.26126 38.8115C2.79543 38.6196 2.37203 38.3377 2.01532 37.9819C1.65861 37.6261 1.3756 37.2035 1.1825 36.7381C0.989402 36.2728 0.890005 35.7739 0.890007 35.2701V4.73014C0.890007 3.71171 1.29458 2.73499 2.01472 2.01485C2.73486 1.29471 3.71158 0.890137 4.73001 0.890137H130.2C131.212 0.898063 132.18 1.30645 132.892 2.02602C133.604 2.74558 134.003 3.7178 134 4.73014V35.2701Z" fill="#1D1E1F"/>
<path d="M30.13 19.78C30.1435 18.803 30.4035 17.8453 30.886 16.9956C31.3685 16.146 32.0578 15.432 32.89 14.92C32.3603 14.1635 31.6615 13.541 30.8491 13.1018C30.0367 12.6626 29.1331 12.4189 28.21 12.39C26.21 12.18 24.34 13.57 23.33 13.57C22.32 13.57 20.76 12.41 19.1 12.45C18.0246 12.4855 16.9767 12.7989 16.0584 13.3597C15.1401 13.9205 14.3827 14.7095 13.86 15.65C11.59 19.57 13.28 25.34 15.46 28.51C16.55 30.06 17.82 31.8 19.46 31.74C21.1 31.68 21.69 30.74 23.65 30.74C25.61 30.74 26.16 31.74 27.86 31.74C29.56 31.74 30.7 30.18 31.75 28.61C32.5307 27.5048 33.1314 26.2831 33.53 24.99C32.5117 24.555 31.6451 23.8279 31.04 22.9006C30.4348 21.9732 30.1181 20.8873 30.13 19.78Z" fill="white"/>
<path d="M26.93 10.31C27.8823 9.16906 28.3522 7.70183 28.24 6.21997C26.7874 6.37108 25.445 7.06371 24.48 8.15997C24.0086 8.69633 23.6475 9.32042 23.4176 9.9965C23.1876 10.6726 23.0933 11.3874 23.14 12.1C23.866 12.1077 24.5842 11.9506 25.2407 11.6405C25.8972 11.3305 26.4748 10.8755 26.93 10.31Z" fill="white"/>
<path d="M53.68 31.5H51.41L50.17 27.59H45.84L44.66 31.5H42.45L46.73 18.2H49.38L53.68 31.5ZM49.79 26L48.67 22.52C48.55 22.14 48.3267 21.3 48 20C47.8667 20.5666 47.6567 21.4033 47.37 22.51L46.22 26H49.79Z" fill="white"/>
<path d="M64.7 26.5899C64.7789 28.0023 64.3056 29.3901 63.38 30.4599C63.0085 30.8679 62.5538 31.1914 62.0467 31.4088C61.5395 31.6261 60.9916 31.7322 60.44 31.7199C59.9057 31.7627 59.3699 31.6586 58.8905 31.4189C58.4111 31.1792 58.0064 30.813 57.72 30.3599V35.4099H55.54V25.0699C55.54 24.0432 55.5133 22.9899 55.46 21.9099H57.34L57.46 23.4299C57.7824 22.9347 58.2161 22.5217 58.7265 22.2239C59.2369 21.9262 59.8098 21.7518 60.3995 21.7149C60.9893 21.678 61.5795 21.7795 62.1231 22.0113C62.6666 22.2431 63.1484 22.5988 63.53 23.0499C64.3359 24.0493 64.7516 25.3072 64.7 26.5899ZM62.53 26.6699C62.5608 25.8536 62.341 25.0475 61.9 24.3599C61.6906 24.0527 61.4061 23.8041 61.0736 23.6378C60.741 23.4715 60.3714 23.3931 60 23.4099C59.4768 23.4085 58.9701 23.5928 58.57 23.9299C58.1421 24.2776 57.8458 24.7609 57.73 25.2999C57.6712 25.5119 57.6376 25.7301 57.63 25.9499V27.5499C57.6109 28.1998 57.8397 28.8326 58.27 29.3199C58.4882 29.5566 58.7573 29.7408 59.0569 29.8586C59.3566 29.9764 59.679 30.0247 60 29.9999C60.3663 30.0155 60.7306 29.9384 61.0592 29.7759C61.3878 29.6133 61.6701 29.3705 61.88 29.0699C62.3405 28.3568 62.5677 27.518 62.53 26.6699Z" fill="white"/>
<path d="M75.74 26.5899C75.8189 28.0023 75.3456 29.3901 74.42 30.4599C74.0485 30.8679 73.5938 31.1914 73.0867 31.4088C72.5795 31.6261 72.0317 31.7322 71.48 31.7199C70.9457 31.7627 70.4099 31.6586 69.9305 31.4189C69.4511 31.1792 69.0464 30.813 68.76 30.3599V35.4099H66.57V25.0699C66.57 24.0432 66.5434 22.9899 66.49 21.9099H68.37L68.49 23.4299C68.8124 22.9347 69.2461 22.5217 69.7565 22.2239C70.2669 21.9262 70.8398 21.7518 71.4296 21.7149C72.0193 21.678 72.6095 21.7795 73.153 22.0113C73.6966 22.2431 74.1784 22.5988 74.56 23.0499C75.3687 24.0483 75.7879 25.306 75.74 26.5899ZM73.57 26.6699C73.6008 25.8536 73.381 25.0475 72.94 24.3599C72.7343 24.0585 72.4562 23.8136 72.1312 23.6477C71.8062 23.4817 71.4448 23.3999 71.08 23.4099C70.5568 23.4085 70.0501 23.5928 69.65 23.9299C69.2221 24.2776 68.9258 24.7609 68.81 25.2999C68.7517 25.512 68.7182 25.7301 68.71 25.9499V27.5499C68.6919 28.1996 68.9205 28.8321 69.35 29.3199C69.5595 29.5458 69.8155 29.7236 70.1004 29.841C70.3852 29.9584 70.6922 30.0126 71 29.9999C71.3663 30.0155 71.7306 29.9384 72.0592 29.7759C72.3878 29.6133 72.6701 29.3705 72.88 29.0699C73.3511 28.3602 73.5888 27.5212 73.56 26.6699H73.57Z" fill="white"/>
<path d="M88.08 27.7699C88.0968 28.2882 87.9999 28.8039 87.796 29.2807C87.5922 29.7576 87.2863 30.184 86.9 30.5299C85.881 31.356 84.5893 31.77 83.28 31.6899C82.0744 31.7472 80.8775 31.4593 79.83 30.8599L80.32 29.0799C81.2475 29.6445 82.3142 29.9389 83.4 29.9299C84.0715 29.9702 84.7361 29.7757 85.28 29.3799C85.4969 29.2071 85.6704 28.986 85.7868 28.7343C85.9031 28.4825 85.959 28.2071 85.95 27.9299C85.9553 27.6778 85.9093 27.4272 85.8147 27.1934C85.7202 26.9596 85.5791 26.7475 85.4 26.5699C84.8615 26.1143 84.2352 25.774 83.56 25.5699C81.2266 24.6966 80.06 23.4232 80.06 21.7499C80.0372 21.2284 80.1355 20.7088 80.3472 20.2317C80.5588 19.7546 80.8781 19.3329 81.28 18.9999C82.2094 18.2821 83.368 17.9267 84.54 17.9999C85.576 17.9661 86.605 18.1822 87.54 18.6299L87 20.3699C86.2153 19.9542 85.3379 19.7443 84.45 19.7599C83.8157 19.7211 83.1893 19.9169 82.69 20.3099C82.5209 20.4603 82.386 20.6453 82.2946 20.8523C82.2031 21.0593 82.1572 21.2836 82.16 21.5099C82.1557 21.7588 82.2084 22.0053 82.3141 22.2307C82.4198 22.456 82.5758 22.6542 82.77 22.8099C83.3566 23.2428 84.008 23.5803 84.7 23.8099C85.6578 24.1459 86.524 24.7006 87.23 25.4299C87.8016 26.0728 88.1057 26.91 88.08 27.7699Z" fill="white"/>
<path d="M95.12 23.51H92.77V28.17C92.77 29.3567 93.1833 29.95 94.01 29.95C94.3296 29.9572 94.6489 29.9236 94.96 29.85L95 31.46C94.4649 31.6364 93.9031 31.7177 93.34 31.7C92.9707 31.7245 92.6005 31.6683 92.2552 31.5353C91.9098 31.4024 91.5975 31.1958 91.34 30.93C90.7934 30.1831 90.5407 29.2612 90.63 28.34V23.5H89.23V21.9H90.63V20.15L92.72 19.52V21.9H95.07V23.5L95.12 23.51Z" fill="white"/>
<path d="M105.73 26.63C105.783 27.9556 105.333 29.2521 104.47 30.26C104.026 30.7442 103.483 31.1257 102.876 31.3779C102.27 31.63 101.616 31.7468 100.96 31.72C100.33 31.748 99.7015 31.6371 99.1191 31.3952C98.5367 31.1532 98.0147 30.7862 97.59 30.32C96.7417 29.3439 96.295 28.0824 96.34 26.79C96.2863 25.4529 96.7481 24.1463 97.63 23.14C98.0741 22.6646 98.6162 22.2913 99.2188 22.0462C99.8214 21.801 100.47 21.6897 101.12 21.72C101.753 21.6951 102.383 21.8073 102.968 22.049C103.553 22.2906 104.079 22.656 104.51 23.12C105.347 24.0929 105.783 25.3476 105.73 26.63ZM103.52 26.7C103.544 25.9019 103.347 25.1129 102.95 24.42C102.768 24.0628 102.488 23.765 102.142 23.5613C101.797 23.3576 101.401 23.2566 101 23.27C100.592 23.2506 100.186 23.3486 99.8318 23.5524C99.4773 23.7562 99.1887 24.0572 99 24.42C98.6002 25.1261 98.4029 25.9289 98.43 26.74C98.431 27.5379 98.6525 28.32 99.07 29C99.2557 29.3493 99.5329 29.6416 99.8721 29.8454C100.211 30.0492 100.599 30.1568 100.995 30.1568C101.391 30.1568 101.779 30.0492 102.118 29.8454C102.457 29.6416 102.734 29.3493 102.92 29C103.331 28.3043 103.538 27.5076 103.52 26.7Z" fill="white"/>
<path d="M112.66 23.78C112.439 23.7391 112.215 23.719 111.99 23.72C111.652 23.7027 111.315 23.7717 111.01 23.9204C110.706 24.069 110.444 24.2926 110.25 24.57C109.878 25.1317 109.692 25.7966 109.72 26.47V31.47H107.59V24.9C107.59 23.7933 107.563 22.7933 107.51 21.9H109.37L109.45 23.74H109.51C109.712 23.1402 110.083 22.6121 110.58 22.22C111.025 21.8882 111.565 21.7093 112.12 21.71C112.296 21.6963 112.474 21.6963 112.65 21.71V23.71L112.66 23.78Z" fill="white"/>
<path d="M122.19 26.2501C122.197 26.5853 122.17 26.9203 122.11 27.2501H115.71C115.697 27.6578 115.773 28.0634 115.934 28.4384C116.095 28.8133 116.336 29.1484 116.64 29.4201C117.235 29.8852 117.976 30.1228 118.73 30.0901C119.614 30.1036 120.492 29.951 121.32 29.6401L121.66 31.1201C120.639 31.5367 119.543 31.7375 118.44 31.7101C117.798 31.7451 117.155 31.6468 116.553 31.4214C115.951 31.1959 115.401 30.8482 114.94 30.4001C114.505 29.9271 114.169 29.3722 113.951 28.7678C113.733 28.1635 113.637 27.5218 113.67 26.8801C113.623 25.575 114.041 24.2956 114.85 23.2701C115.25 22.7677 115.762 22.3665 116.346 22.0989C116.93 21.8314 117.568 21.7051 118.21 21.7301C118.821 21.6969 119.431 21.821 119.981 22.0906C120.531 22.3602 121.002 22.7663 121.35 23.2701C121.928 24.1543 122.221 25.1943 122.19 26.2501ZM120.19 25.7001C120.215 25.124 120.069 24.5533 119.77 24.0601C119.594 23.7713 119.343 23.5358 119.044 23.379C118.744 23.2222 118.407 23.15 118.07 23.1701C117.737 23.1619 117.406 23.2372 117.109 23.3891C116.813 23.5411 116.558 23.7649 116.37 24.0401C116.008 24.523 115.789 25.0985 115.74 25.7001H120.18H120.19Z" fill="white"/>
<path d="M47.43 13.4299H43.71V6.88989H44.71V12.5399H47.38V13.4199L47.43 13.4299Z" fill="white"/>
<path d="M52.37 13.4301H51.42L51.34 12.8901C51.181 13.1034 50.972 13.2743 50.7313 13.3877C50.4906 13.501 50.2257 13.5534 49.96 13.5401C49.7598 13.5486 49.5601 13.5147 49.374 13.4406C49.1878 13.3665 49.0195 13.2539 48.88 13.1101C48.7532 12.9776 48.6549 12.8205 48.5912 12.6484C48.5276 12.4764 48.4999 12.2932 48.51 12.1101C48.499 11.8454 48.5602 11.5828 48.687 11.3502C48.8138 11.1177 49.0015 10.9241 49.23 10.7901C49.8419 10.4572 50.5345 10.3014 51.23 10.3401V10.3001C51.2469 10.1676 51.2321 10.0331 51.1867 9.90757C51.1413 9.78204 51.0666 9.66914 50.9688 9.57822C50.8711 9.48731 50.7531 9.42101 50.6246 9.38481C50.4961 9.34861 50.3608 9.34355 50.23 9.37006C49.7943 9.36176 49.366 9.48362 49 9.72006L48.83 9.00006C49.3203 8.71272 49.882 8.57054 50.45 8.59006C50.709 8.55999 50.9715 8.59065 51.2167 8.67961C51.4619 8.76856 51.683 8.91338 51.8625 9.10258C52.042 9.29178 52.1749 9.52018 52.2509 9.76968C52.3268 10.0192 52.3436 10.2829 52.3 10.5401V12.2801C52.2928 12.6646 52.3162 13.0492 52.37 13.4301ZM51.28 11.8101V11.0901C50.12 11.0901 49.54 11.4067 49.54 12.0401C49.5323 12.1407 49.5462 12.2418 49.5807 12.3366C49.6152 12.4315 49.6695 12.5179 49.74 12.5901C49.8807 12.7131 50.0632 12.7776 50.25 12.7701C50.4816 12.7686 50.7064 12.6914 50.89 12.5501C51.0795 12.4212 51.2121 12.2242 51.26 12.0001C51.274 11.9377 51.2807 11.874 51.28 11.8101Z" fill="white"/>
<path d="M58.32 13.4301H57.39V12.6701C57.2509 12.9461 57.0334 13.175 56.7648 13.328C56.4962 13.481 56.1884 13.5513 55.88 13.53C55.6077 13.5351 55.3379 13.4773 55.0916 13.3611C54.8453 13.2449 54.6292 13.0734 54.46 12.86C54.0697 12.3665 53.8708 11.7486 53.9 11.12C53.8698 10.4495 54.0869 9.79118 54.51 9.27005C54.6897 9.05928 54.9138 8.89082 55.1661 8.77673C55.4185 8.66263 55.693 8.60571 55.97 8.61005C56.2292 8.58343 56.4906 8.62915 56.7254 8.74212C56.9602 8.8551 57.1591 9.03091 57.3 9.25005V6.55005H58.3V12.16C58.2866 12.62 58.2933 13.0434 58.32 13.4301ZM57.23 11.43V10.66C57.2418 10.5504 57.2418 10.4397 57.23 10.33C57.175 10.0816 57.0418 9.85726 56.85 9.69005C56.659 9.51625 56.4081 9.42308 56.15 9.43005C55.9694 9.42436 55.7904 9.46448 55.6295 9.54666C55.4686 9.62884 55.3312 9.75042 55.23 9.90005C54.9937 10.2508 54.8746 10.6674 54.89 11.09C54.8696 11.4948 54.982 11.8951 55.21 12.23C55.3118 12.379 55.4494 12.5001 55.6101 12.5822C55.7708 12.6643 55.9496 12.7048 56.13 12.7C56.2894 12.706 56.4479 12.6736 56.5923 12.6058C56.7367 12.538 56.8628 12.4366 56.96 12.3101C57.152 12.0621 57.2479 11.7531 57.23 11.44V11.43Z" fill="white"/>
<path d="M64 10.85C64.0152 11.0096 64.0152 11.1704 64 11.33H60.84C60.8333 11.5312 60.8711 11.7314 60.9506 11.9163C61.0301 12.1012 61.1494 12.2664 61.3 12.4C61.585 12.6226 61.9385 12.7392 62.3 12.73C62.7334 12.7369 63.1642 12.6622 63.57 12.51L63.73 13.24C63.2288 13.4441 62.691 13.5429 62.15 13.53C61.8347 13.5477 61.5191 13.5 61.2231 13.3898C60.9271 13.2797 60.6571 13.1095 60.43 12.89C60.2171 12.6571 60.0527 12.3842 59.9463 12.0873C59.8398 11.7903 59.7935 11.4751 59.81 11.16C59.7873 10.5199 59.9928 9.89252 60.39 9.38999C60.5855 9.14206 60.8369 8.94394 61.1237 8.81185C61.4105 8.67975 61.7245 8.61744 62.04 8.62999C62.3402 8.6146 62.6394 8.67637 62.909 8.80942C63.1786 8.94246 63.4096 9.14234 63.58 9.38999C63.8669 9.82187 64.0135 10.3317 64 10.85ZM63 10.58C63.0153 10.2961 62.9457 10.0141 62.8 9.76999C62.7152 9.63523 62.597 9.52476 62.4568 9.44939C62.3165 9.37402 62.1591 9.33633 62 9.33999C61.8371 9.33864 61.6763 9.3771 61.5317 9.45204C61.387 9.52698 61.2628 9.63613 61.17 9.76999C60.9931 10.0058 60.8857 10.2864 60.86 10.58H63Z" fill="white"/>
<path d="M69.64 13.4299H68.64V10.7299C68.64 9.89661 68.3233 9.47994 67.69 9.47994C67.5463 9.47869 67.4041 9.50841 67.2729 9.56709C67.1418 9.62576 67.0248 9.712 66.93 9.81994C66.7382 10.0458 66.6351 10.3337 66.64 10.6299V13.4299H65.64V10.0699C65.64 9.65661 65.64 9.20661 65.64 8.71994H66.56V9.45994C66.6866 9.22565 66.8729 9.029 67.1 8.88994C67.3702 8.7205 67.6811 8.62721 68 8.61994C68.1994 8.60681 68.3994 8.63366 68.5883 8.69891C68.7772 8.76417 68.9512 8.86652 69.1 8.99994C69.2917 9.20935 69.4385 9.45579 69.5314 9.72408C69.6242 9.99237 69.6612 10.2768 69.64 10.5599V13.3799V13.4299Z" fill="white"/>
<path d="M75.48 7.30997C75.4844 7.39502 75.4706 7.48004 75.4395 7.55935C75.4085 7.63866 75.3609 7.71046 75.3 7.76997C75.1733 7.88969 75.0043 7.9544 74.83 7.94997C74.7483 7.95152 74.6671 7.93636 74.5914 7.9054C74.5158 7.87445 74.4472 7.82836 74.39 7.76997C74.3309 7.71124 74.2844 7.64101 74.2534 7.56361C74.2224 7.48621 74.2077 7.40329 74.21 7.31997C74.2064 7.23649 74.2206 7.15321 74.2517 7.07563C74.2827 6.99805 74.3299 6.92795 74.39 6.86997C74.5149 6.75753 74.677 6.69531 74.845 6.69531C75.0131 6.69531 75.1751 6.75753 75.3 6.86997C75.3589 6.92681 75.4053 6.99529 75.4363 7.07103C75.4673 7.14678 75.4822 7.22815 75.48 7.30997ZM75.36 13.43H74.36V8.71997H75.36V13.44V13.43Z" fill="white"/>
<path d="M84 13.4299H83V10.7899C83 9.9199 82.7 9.4799 82.11 9.4799C81.9795 9.47598 81.8499 9.50292 81.7317 9.55852C81.6136 9.61413 81.5102 9.69683 81.43 9.7999C81.2571 10.015 81.1651 10.284 81.17 10.5599V13.4199H80.17V10.6499C80.1837 10.3509 80.107 10.0547 79.95 9.7999C79.8798 9.69611 79.784 9.61215 79.6719 9.5561C79.5598 9.50006 79.4352 9.47381 79.31 9.4799C79.1738 9.47789 79.0391 9.50863 78.9173 9.56954C78.7955 9.63045 78.6901 9.71974 78.61 9.8299C78.4321 10.0545 78.3368 10.3334 78.34 10.6199V13.4299H77.34V10.0599C77.34 9.64656 77.34 9.19656 77.34 8.7099H78.24V9.4299C78.381 9.17439 78.5905 8.96324 78.8448 8.82016C79.0992 8.67708 79.3884 8.60773 79.68 8.6199C79.9636 8.60142 80.2454 8.67787 80.4808 8.83721C80.7161 8.99654 80.8918 9.22969 80.98 9.4999C81.1175 9.26497 81.3053 9.06346 81.53 8.9099C81.8227 8.7065 82.1739 8.60464 82.53 8.6199C82.7172 8.61944 82.9026 8.65736 83.0745 8.73132C83.2465 8.80527 83.4015 8.9137 83.53 9.0499C83.895 9.49585 84.0741 10.0653 84.03 10.6399V13.4399L84 13.4299Z" fill="white"/>
</g>
<defs>
<clipPath id="clip0_15_1747">
<rect width="135" height="40" fill="white"/>
</clipPath>
</defs>
</svg>
