<svg width="135" height="40" viewBox="0 0 135 40" fill="none" xmlns="http://www.w3.org/2000/svg">
<g clip-path="url(#clip0_15_1768)">
<path d="M130 0H5C2.23858 0 0 2.23858 0 5V35C0 37.7614 2.23858 40 5 40H130C132.761 40 135 37.7614 135 35V5C135 2.23858 132.761 0 130 0Z" fill="#1D1E1F"/>
<path d="M130 0.8C131.114 0.8 132.182 1.2425 132.97 2.03015C133.758 2.8178 134.2 3.88609 134.2 5V35C134.2 36.1139 133.758 37.1822 132.97 37.9698C132.182 38.7575 131.114 39.2 130 39.2H5C3.88609 39.2 2.8178 38.7575 2.03015 37.9698C1.2425 37.1822 0.8 36.1139 0.8 35V5C0.8 3.88609 1.2425 2.8178 2.03015 2.03015C2.8178 1.2425 3.88609 0.8 5 0.8H130ZM130 0H5C3.67392 0 2.40215 0.526784 1.46447 1.46447C0.526784 2.40215 0 3.67392 0 5V35C0 36.3261 0.526784 37.5979 1.46447 38.5355C2.40215 39.4732 3.67392 40 5 40H130C131.326 40 132.598 39.4732 133.536 38.5355C134.473 37.5979 135 36.3261 135 35V5C135 3.67392 134.473 2.40215 133.536 1.46447C132.598 0.526784 131.326 0 130 0Z" fill="#CCCCCC"/>
<path d="M68.14 21.7499C67.3003 21.7538 66.4806 22.0064 65.7843 22.4758C65.088 22.9452 64.5464 23.6104 64.2278 24.3873C63.9092 25.1642 63.8279 26.0181 63.9941 26.8412C64.1603 27.6643 64.5667 28.4197 65.1618 29.0121C65.757 29.6044 66.5143 30.0072 67.3382 30.1696C68.1621 30.332 69.0156 30.2467 69.791 29.9244C70.5664 29.6022 71.229 29.0574 71.6951 28.359C72.1612 27.6605 72.41 26.8396 72.41 25.9999C72.4181 25.4378 72.3131 24.8798 72.1012 24.3592C71.8892 23.8386 71.5747 23.3659 71.1762 22.9694C70.7778 22.5728 70.3037 22.2605 69.7821 22.051C69.2605 21.8415 68.702 21.7391 68.14 21.7499ZM68.14 28.5799C67.6236 28.616 67.1082 28.4959 66.661 28.2353C66.2137 27.9746 65.8552 27.5854 65.632 27.1183C65.4089 26.6512 65.3314 26.1278 65.4097 25.616C65.4879 25.1043 65.7184 24.628 66.071 24.2489C66.4236 23.8699 66.882 23.6057 67.3868 23.4906C67.8915 23.3756 68.4192 23.4151 68.9012 23.604C69.3832 23.7928 69.7972 24.1223 70.0895 24.5496C70.3818 24.9769 70.5387 25.4822 70.54 25.9999C70.5561 26.3279 70.5064 26.6558 70.3937 26.9643C70.2811 27.2728 70.1078 27.5556 69.8841 27.796C69.6604 28.0365 69.3909 28.2297 69.0913 28.3644C68.7918 28.499 68.4683 28.5723 68.14 28.5799ZM58.83 21.7499C57.9899 21.7518 57.1691 22.0028 56.4715 22.471C55.774 22.9392 55.2308 23.6036 54.9106 24.3804C54.5905 25.1571 54.5078 26.0114 54.6729 26.8351C54.838 27.6589 55.2436 28.4152 55.8383 29.0086C56.4331 29.602 57.1904 30.0057 58.0145 30.1689C58.8387 30.3321 59.6927 30.2474 60.4687 29.9254C61.2447 29.6034 61.9079 29.0587 62.3744 28.36C62.841 27.6613 63.09 26.84 63.09 25.9999C63.0981 25.4378 62.9931 24.8798 62.7812 24.3592C62.5692 23.8386 62.2547 23.3659 61.8562 22.9694C61.4578 22.5728 60.9837 22.2605 60.4621 22.051C59.9405 21.8415 59.382 21.7391 58.82 21.7499H58.83ZM58.83 28.5799C58.3133 28.618 57.7971 28.4997 57.3486 28.2404C56.9001 27.9811 56.5401 27.5928 56.3153 27.126C56.0906 26.6592 56.0116 26.1355 56.0887 25.6232C56.1657 25.1109 56.3952 24.6336 56.7473 24.2536C57.0994 23.8735 57.5577 23.6082 58.0627 23.4923C58.5676 23.3764 59.0957 23.4151 59.5783 23.6036C60.0609 23.792 60.4756 24.1213 60.7684 24.5487C61.0612 24.9761 61.2186 25.4818 61.22 25.9999C61.2361 26.3279 61.1864 26.6558 61.0737 26.9643C60.9611 27.2728 60.7878 27.5556 60.5641 27.796C60.3404 28.0365 60.0709 28.2297 59.7713 28.3644C59.4718 28.499 59.1483 28.5723 58.82 28.5799H58.83ZM47.74 23.0599V24.8599H52.06C51.9923 25.7077 51.6398 26.5077 51.06 27.1299C50.6278 27.5701 50.1082 27.915 49.5347 28.1423C48.9612 28.3697 48.3464 28.4744 47.73 28.4499C46.457 28.4499 45.2361 27.9442 44.3359 27.044C43.4357 26.1438 42.93 24.9229 42.93 23.6499C42.93 22.3768 43.4357 21.1559 44.3359 20.2558C45.2361 19.3556 46.457 18.8499 47.73 18.8499C48.9478 18.83 50.1238 19.2939 51 20.1399L52.27 18.8699C51.6785 18.2709 50.9727 17.7968 50.1946 17.4755C49.4165 17.1543 48.5818 16.9926 47.74 16.9999C46.851 16.9653 45.9641 17.1105 45.1326 17.4268C44.3011 17.7432 43.542 18.2241 42.9007 18.8409C42.2595 19.4576 41.7494 20.1975 41.401 21.0161C41.0525 21.8347 40.8729 22.7152 40.8729 23.6049C40.8729 24.4945 41.0525 25.3751 41.401 26.1937C41.7494 27.0123 42.2595 27.7521 42.9007 28.3689C43.542 28.9856 44.3011 29.4666 45.1326 29.7829C45.9641 30.0992 46.851 30.2445 47.74 30.2099C48.5959 30.2485 49.4502 30.1035 50.2454 29.7843C51.0406 29.4652 51.7582 28.9795 52.35 28.3599C53.3977 27.2088 53.957 25.6956 53.91 24.1399C53.9132 23.7609 53.8797 23.3824 53.81 23.0099L47.74 23.0599ZM93.05 24.4599C92.7892 23.6926 92.3015 23.0227 91.6515 22.5387C91.0015 22.0548 90.2198 21.7797 89.41 21.7499C88.863 21.7488 88.3216 21.8599 87.8192 22.0764C87.3169 22.2929 86.8643 22.6101 86.4894 23.0084C86.1145 23.4067 85.8253 23.8777 85.6396 24.3923C85.4539 24.9068 85.3758 25.4539 85.41 25.9999C85.3978 26.5588 85.4985 27.1144 85.7058 27.6336C85.9132 28.1527 86.2231 28.6247 86.617 29.0214C87.0109 29.4181 87.4808 29.7314 87.9984 29.9424C88.5161 30.1535 89.071 30.2581 89.63 30.2499C90.3295 30.2536 91.019 30.0839 91.6368 29.7558C92.2546 29.4277 92.7814 28.9515 93.17 28.3699L91.72 27.3699C91.5036 27.7307 91.1972 28.0291 90.8308 28.2359C90.4645 28.4428 90.0507 28.5509 89.63 28.5499C89.1968 28.5664 88.7687 28.4522 88.4013 28.2221C88.0339 27.9921 87.7443 27.6568 87.57 27.2599L93.26 24.9099L93.05 24.4599ZM87.25 25.8799C87.2297 25.5706 87.2714 25.2603 87.3725 24.9673C87.4736 24.6743 87.6322 24.4044 87.839 24.1735C88.0457 23.9425 88.2964 23.7551 88.5765 23.6223C88.8566 23.4895 89.1603 23.4138 89.47 23.3999C89.7926 23.3786 90.1143 23.4526 90.3951 23.6126C90.676 23.7726 90.9038 24.0116 91.05 24.2999L87.25 25.8799ZM82.63 29.9999H84.5V17.4999H82.63V29.9999ZM79.57 22.6999H79.5C79.2182 22.3848 78.8729 22.1328 78.4869 21.9605C78.1008 21.7881 77.6827 21.6993 77.26 21.6999C76.1672 21.7529 75.1366 22.2243 74.382 23.0165C73.6273 23.8086 73.2063 24.8608 73.2063 25.9549C73.2063 27.049 73.6273 28.1011 74.382 28.8933C75.1366 29.6854 76.1672 30.1569 77.26 30.2099C77.6838 30.217 78.1039 30.1312 78.4909 29.9584C78.8779 29.7856 79.2224 29.5301 79.5 29.2099H79.56V29.8199C79.56 31.4499 78.69 32.3199 77.29 32.3199C76.8237 32.309 76.3712 32.1595 75.9901 31.8906C75.609 31.6217 75.3166 31.2455 75.15 30.8099L73.52 31.4899C73.8268 32.2362 74.3496 32.8739 75.0213 33.3211C75.693 33.7683 76.483 34.0047 77.29 33.9999C79.48 33.9999 81.29 32.7099 81.29 29.5699V21.9999H79.57V22.6999ZM77.43 28.5799C76.7849 28.523 76.1846 28.2266 75.7473 27.749C75.3099 27.2715 75.0674 26.6474 75.0674 25.9999C75.0674 25.3523 75.3099 24.7283 75.7473 24.2507C76.1846 23.7731 76.7849 23.4767 77.43 23.4199C77.7498 23.4363 78.0631 23.5165 78.3514 23.6559C78.6398 23.7953 78.8973 23.9909 79.1088 24.2314C79.3204 24.4718 79.4817 24.7521 79.5832 25.0559C79.6847 25.3596 79.7244 25.6806 79.7 25.9999C79.7273 26.3206 79.6892 26.6435 79.5882 26.949C79.4871 27.2546 79.3251 27.5365 79.112 27.7777C78.8988 28.0188 78.639 28.2143 78.3482 28.3522C78.0574 28.49 77.7416 28.5675 77.42 28.5799H77.43ZM101.81 17.4999H97.34V29.9999H99.21V25.2599H101.82C102.353 25.2982 102.888 25.2262 103.392 25.0486C103.896 24.871 104.358 24.5914 104.749 24.2274C105.14 23.8633 105.452 23.4226 105.665 22.9327C105.879 22.4428 105.989 21.9142 105.989 21.3799C105.989 20.8455 105.879 20.3169 105.665 19.827C105.452 19.3371 105.14 18.8964 104.749 18.5324C104.358 18.1683 103.896 17.8888 103.392 17.7111C102.888 17.5335 102.353 17.4616 101.82 17.4999H101.81ZM101.81 23.4999H99.2V19.2399H101.85C102.419 19.2399 102.964 19.4659 103.367 19.8681C103.769 20.2704 103.995 20.816 103.995 21.3849C103.995 21.9538 103.769 22.4994 103.367 22.9016C102.964 23.3039 102.419 23.5299 101.85 23.5299L101.81 23.4999ZM113.34 21.6999C112.659 21.6592 111.981 21.8183 111.39 22.1576C110.798 22.4969 110.319 23.0017 110.01 23.6099L111.67 24.2999C111.834 23.9982 112.081 23.7507 112.383 23.5873C112.685 23.424 113.028 23.3519 113.37 23.3799C113.607 23.3521 113.848 23.372 114.078 23.4382C114.307 23.5044 114.521 23.6157 114.708 23.7656C114.894 23.9155 115.048 24.1009 115.162 24.3111C115.276 24.5213 115.346 24.752 115.37 24.9899V25.1199C114.769 24.8019 114.1 24.637 113.42 24.6399C111.63 24.6399 109.82 25.6399 109.82 27.4499C109.838 27.8358 109.933 28.2143 110.099 28.5629C110.265 28.9116 110.5 29.2233 110.789 29.4797C111.078 29.736 111.416 29.9319 111.782 30.0556C112.148 30.1793 112.535 30.2283 112.92 30.1999C113.391 30.2337 113.862 30.1401 114.285 29.929C114.707 29.7178 115.064 29.3969 115.32 28.9999H115.38V29.9999H117.18V25.1899C117.18 22.9999 115.52 21.7299 113.39 21.7299L113.34 21.6999ZM113.11 28.5499C112.5 28.5499 111.65 28.2399 111.65 27.4899C111.65 26.4899 112.71 26.1599 113.65 26.1599C114.244 26.1452 114.831 26.2903 115.35 26.5799C115.287 27.1213 115.031 27.6218 114.629 27.9894C114.227 28.3569 113.705 28.5666 113.16 28.5799L113.11 28.5499ZM123.74 21.9999L121.6 27.4199H121.54L119.32 21.9999H117.32L120.65 29.5799L118.75 33.7899H120.7L125.82 21.9999H123.74ZM106.93 29.9999H108.8V17.4999H106.93V29.9999Z" fill="white"/>
<path d="M10.44 7.53997C10.1141 7.93108 9.94955 8.43177 9.98 8.93997V31.06C9.94955 31.5682 10.1141 32.0689 10.44 32.46L10.51 32.53L22.9 20.15V19.86L10.51 7.46997L10.44 7.53997Z" fill="url(#paint0_linear_15_1768)"/>
<path d="M27 24.28L22.9 20.15V19.86L27 15.72L27.09 15.77L32 18.56C33.4 19.35 33.4 20.65 32 21.45L27.11 24.23L27 24.28Z" fill="url(#paint1_linear_15_1768)"/>
<path d="M27.12 24.22L22.9 20L10.44 32.46C10.7254 32.7108 11.0894 32.8541 11.4692 32.8651C11.849 32.876 12.2207 32.754 12.52 32.52L27.13 24.22" fill="url(#paint2_linear_15_1768)"/>
<path d="M27.12 15.7801L12.51 7.48005C12.2106 7.24606 11.839 7.124 11.4592 7.13496C11.0794 7.14591 10.7154 7.2892 10.43 7.54005L22.9 20.0001L27.12 15.7801Z" fill="url(#paint3_linear_15_1768)"/>
<path opacity="0.2" d="M27 24.1301L12.51 32.3801C12.2213 32.596 11.8705 32.7126 11.51 32.7126C11.1495 32.7126 10.7987 32.596 10.51 32.3801L10.44 32.4501L10.51 32.5201C10.7981 32.7375 11.1491 32.8551 11.51 32.8551C11.8709 32.8551 12.2219 32.7375 12.51 32.5201L27.12 24.2201L27 24.1301Z" fill="#1D1E1F"/>
<path opacity="0.12" d="M10.44 32.3199C10.1141 31.9288 9.94955 31.4281 9.98 30.9199V31.0699C9.94955 31.5781 10.1141 32.0788 10.44 32.4699L10.51 32.3999L10.44 32.3199Z" fill="#1D1E1F"/>
<path opacity="0.12" d="M32 21.3L27 24.13L27.09 24.22L32 21.44C32.2786 21.3091 32.5177 21.1071 32.6933 20.8543C32.8689 20.6014 32.9747 20.3068 33 20C32.9438 20.2787 32.8244 20.5408 32.651 20.7662C32.4777 20.9915 32.2549 21.1742 32 21.3Z" fill="#1D1E1F"/>
<path opacity="0.25" d="M12.51 7.61994L32 18.6999C32.255 18.8258 32.4777 19.0084 32.6511 19.2338C32.8244 19.4591 32.9438 19.7212 33 19.9999C32.9747 19.6932 32.8689 19.3985 32.6933 19.1457C32.5178 18.8929 32.2786 18.6908 32 18.5599L12.51 7.47994C11.11 6.68994 9.97002 7.34994 9.97002 8.94994V9.09994C10 7.48994 11.12 6.82994 12.51 7.61994Z" fill="white"/>
<path d="M43 13.13C42.5962 13.1437 42.2002 13.0164 41.88 12.77C41.5667 12.5105 41.3399 12.1617 41.23 11.77L41.93 11.48C41.9665 11.745 42.0983 11.9877 42.3007 12.1626C42.5032 12.3374 42.7625 12.4325 43.03 12.43C43.1861 12.4407 43.3425 12.4145 43.4866 12.3537C43.6308 12.293 43.7587 12.1992 43.86 12.08C44.0648 11.8108 44.1675 11.4778 44.15 11.14V7H44.92V11.09C44.939 11.3653 44.9009 11.6416 44.808 11.9015C44.715 12.1614 44.5693 12.3992 44.38 12.6C44.1977 12.777 43.9815 12.9152 43.7443 13.0063C43.5071 13.0974 43.2539 13.1395 43 13.13Z" fill="white" stroke="white" stroke-width="0.2" stroke-miterlimit="10"/>
<path d="M49.71 7.74H47V9.64H49.46V10.36H47V12.26H49.73V13H46.2V7H49.7L49.71 7.74Z" fill="white" stroke="white" stroke-width="0.2" stroke-miterlimit="10"/>
<path d="M53 13H52.23V7.74H50.51V7H54.63V7.74H53V13Z" fill="white" stroke="white" stroke-width="0.2" stroke-miterlimit="10"/>
<path d="M55.27 13V12.2L58.46 7.74H55.4V7H59.4V7.8L56.21 12.26H59.44V13H55.27Z" fill="white" stroke="white" stroke-width="0.2" stroke-miterlimit="10"/>
<path d="M62.54 13H61.77V7.74H60.1V7H64.22V7.74H62.54V13Z" fill="white" stroke="white" stroke-width="0.2" stroke-miterlimit="10"/>
<path d="M67.2 13.0001V7.00007H69.37C69.8205 6.99156 70.2572 7.1562 70.59 7.46007C70.7571 7.60508 70.8903 7.78505 70.9801 7.98723C71.07 8.18941 71.1143 8.40886 71.11 8.63007C71.1147 8.89663 71.0379 9.15828 70.89 9.38007C70.7431 9.5955 70.5387 9.7653 70.3 9.87007C70.59 9.96609 70.8444 10.1473 71.03 10.3901C71.2223 10.6351 71.3246 10.9387 71.32 11.2501C71.3251 11.4806 71.2793 11.7094 71.186 11.9203C71.0927 12.1311 70.954 12.3188 70.78 12.4701C70.4318 12.7913 69.9736 12.9666 69.5 12.9601L67.2 13.0001ZM68 9.57007H69.4C69.5307 9.57553 69.6611 9.55241 69.782 9.50232C69.9029 9.45224 70.0114 9.37639 70.1 9.28007C70.1828 9.1974 70.2485 9.0992 70.2934 8.9911C70.3382 8.883 70.3613 8.76711 70.3613 8.65007C70.3613 8.53303 70.3382 8.41715 70.2934 8.30904C70.2485 8.20094 70.1828 8.10274 70.1 8.02007C70.0164 7.92554 69.9131 7.85056 69.7973 7.80044C69.6815 7.75033 69.5561 7.7263 69.43 7.73007H68V9.57007ZM68 12.2601H69.55C69.6854 12.2646 69.8202 12.2392 69.9446 12.1856C70.0691 12.132 70.1802 12.0516 70.27 11.9501C70.4463 11.7672 70.5464 11.5241 70.55 11.2701C70.55 11.0049 70.4446 10.7505 70.2571 10.563C70.0695 10.3754 69.8152 10.2701 69.55 10.2701H68V12.2601Z" fill="white" stroke="white" stroke-width="0.2" stroke-miterlimit="10"/>
<path d="M75.85 7.74H73.12V9.64H75.58V10.36H73.12V12.26H75.85V13H72.35V7H75.85V7.74Z" fill="white" stroke="white" stroke-width="0.2" stroke-miterlimit="10"/>
<path d="M77.06 13V7H77.83V13H77.06Z" fill="white" stroke="white" stroke-width="0.2" stroke-miterlimit="10"/>
</g>
<defs>
<linearGradient id="paint0_linear_15_1768" x1="21.8" y1="8.70997" x2="5.02" y2="25.49" gradientUnits="userSpaceOnUse">
<stop stop-color="#00A0FF"/>
<stop offset="0.01" stop-color="#00A1FF"/>
<stop offset="0.26" stop-color="#00BEFF"/>
<stop offset="0.51" stop-color="#00D2FF"/>
<stop offset="0.76" stop-color="#00DFFF"/>
<stop offset="1" stop-color="#00E3FF"/>
</linearGradient>
<linearGradient id="paint1_linear_15_1768" x1="33.83" y1="20" x2="9.64001" y2="20" gradientUnits="userSpaceOnUse">
<stop stop-color="#FFE000"/>
<stop offset="0.41" stop-color="#FFBD00"/>
<stop offset="0.78" stop-color="#FFA500"/>
<stop offset="1" stop-color="#FF9C00"/>
</linearGradient>
<linearGradient id="paint2_linear_15_1768" x1="24.83" y1="22.3" x2="2.07001" y2="45.05" gradientUnits="userSpaceOnUse">
<stop stop-color="#FF3A44"/>
<stop offset="1" stop-color="#C31162"/>
</linearGradient>
<linearGradient id="paint3_linear_15_1768" x1="7.29999" y1="0.180048" x2="17.46" y2="10.34" gradientUnits="userSpaceOnUse">
<stop stop-color="#32A071"/>
<stop offset="0.07" stop-color="#2DA771"/>
<stop offset="0.48" stop-color="#15CF74"/>
<stop offset="0.8" stop-color="#06E775"/>
<stop offset="1" stop-color="#00F076"/>
</linearGradient>
<clipPath id="clip0_15_1768">
<rect width="135" height="40" fill="white"/>
</clipPath>
</defs>
</svg>
