<svg width="25" height="25" viewBox="0 0 25 25" fill="none" xmlns="http://www.w3.org/2000/svg">
<g clip-path="url(#clip0_15_2287)">
<path d="M2.34253 17.9751C2.34253 18.5251 2.79253 18.9751 3.34253 18.9751H21.3425C21.8925 18.9751 22.3425 18.5251 22.3425 17.9751C22.3425 17.4251 21.8925 16.9751 21.3425 16.9751H3.34253C2.79253 16.9751 2.34253 17.4251 2.34253 17.9751ZM2.34253 12.9751C2.34253 13.5251 2.79253 13.9751 3.34253 13.9751H21.3425C21.8925 13.9751 22.3425 13.5251 22.3425 12.9751C22.3425 12.4251 21.8925 11.9751 21.3425 11.9751H3.34253C2.79253 11.9751 2.34253 12.4251 2.34253 12.9751ZM2.34253 7.9751C2.34253 8.5251 2.79253 8.9751 3.34253 8.9751H21.3425C21.8925 8.9751 22.3425 8.5251 22.3425 7.9751C22.3425 7.4251 21.8925 6.9751 21.3425 6.9751H3.34253C2.79253 6.9751 2.34253 7.4251 2.34253 7.9751Z" fill="#1D1E1F"/>
</g>
<defs>
<clipPath id="clip0_15_2287">
<rect width="24" height="24" fill="white" transform="translate(0.342529 0.975098)"/>
</clipPath>
</defs>
</svg>
