<svg width="28" height="28" viewBox="0 0 28 28" fill="none" xmlns="http://www.w3.org/2000/svg">
<path fill-rule="evenodd" clip-rule="evenodd" d="M15.9834 13.7087L13.2417 11.7254C13.125 11.6671 13.0084 11.6671 12.8917 11.7254C12.775 11.7837 12.7167 11.9004 12.7167 12.0171V15.9837C12.7167 16.1004 12.775 16.2171 12.8917 16.2754C12.95 16.3337 13.0084 16.3337 13.0667 16.3337C13.125 16.3337 13.1834 16.3337 13.2417 16.2754L15.9834 14.2921C16.1 14.2337 16.1584 14.1171 16.1 14.0004C16.1 13.8837 16.0417 13.7671 15.9834 13.7087Z" fill="#CCCCCC"/>
<path d="M14 0C6.24167 0 0 6.24167 0 14C0 21.7583 6.24167 28 14 28C21.7583 28 28 21.7583 28 14C28 6.24167 21.7583 0 14 0ZM20.5333 17.2083C20.475 17.2667 20.475 17.325 20.475 17.3833V17.4417C20.3 17.9667 19.8333 18.3167 19.25 18.3167H19.3667C19.3667 18.3167 17.0333 18.6667 14 18.6667C10.9083 18.6667 8.63333 18.3167 8.63333 18.3167H8.75C8.16667 18.3167 7.7 17.9667 7.525 17.4417V17.3833C7.46667 17.325 7.46667 17.2667 7.46667 17.2083C7.40833 16.625 7.23333 15.4 7.23333 14C7.23333 12.6 7.40833 11.375 7.46667 10.7917C7.525 10.7333 7.525 10.675 7.525 10.6167V10.5583C7.7 10.0333 8.16667 9.68333 8.75 9.68333H8.63333C8.63333 9.68333 10.9667 9.33333 14 9.33333C17.0917 9.33333 19.3667 9.68333 19.3667 9.68333H19.25C19.8333 9.68333 20.3 10.0333 20.475 10.5583V10.6167C20.5333 10.675 20.5333 10.7333 20.5333 10.7917C20.65 11.375 20.7667 12.6 20.7667 14C20.7667 15.4 20.5917 16.625 20.5333 17.2083Z" fill="#CCCCCC"/>
</svg>
