<svg width="28" height="28" viewBox="0 0 28 28" fill="none" xmlns="http://www.w3.org/2000/svg">
<path d="M14 0C6.24167 0 0 6.24167 0 14C0 21.7583 6.24167 28 14 28C21.7583 28 28 21.7583 28 14C28 6.24167 21.7583 0 14 0ZM17.2083 14H15.1083C15.1083 17.325 15.1083 21.4083 15.1083 21.4083H12.0167C12.0167 21.4083 12.0167 17.3833 12.0167 14H10.5583V11.375H12.0167V9.68333C12.0167 8.51667 12.5417 6.59167 15.1083 6.59167H17.3833V9.15833C17.3833 9.15833 16.0417 9.15833 15.75 9.15833C15.5167 9.15833 15.1083 9.275 15.1083 9.85833V11.375H17.4417L17.2083 14Z" fill="#CCCCCC"/>
</svg>
