<svg width="28" height="28" viewBox="0 0 28 28" fill="none" xmlns="http://www.w3.org/2000/svg">
<path d="M9.8 27.3C11.2 27.7667 12.6 28 14 28C21.7 28 28 21.7 28 14C28 6.3 21.7 0 14 0C6.3 0 0 6.3 0 14C0 19.95 3.73333 25.0833 8.98333 27.0667C8.86667 26.0167 8.75 24.15 8.98333 22.8667L10.6167 15.9833C10.6167 15.9833 10.2667 15.1667 10.2667 13.8833C10.2667 11.9 11.4333 10.5 12.8333 10.5C14 10.5 14.5833 11.4333 14.5833 12.4833C14.5833 13.65 13.7667 15.4 13.4167 17.0333C13.1833 18.4333 14.1167 19.6 15.5167 19.6C17.9667 19.6 19.95 16.9167 19.95 13.1833C19.95 9.8 17.5 7.58333 14.1167 7.58333C10.15 7.58333 7.81667 10.5 7.81667 13.65C7.81667 14.8167 8.16667 16.1 8.86667 16.9167C8.98333 17.0333 8.98333 17.15 8.98333 17.2667L8.63333 18.7833C8.63333 19.0167 8.51667 19.1333 8.28333 18.9C6.53333 18.0833 5.48333 15.5167 5.48333 13.5333C5.48333 9.1 8.63333 5.13333 14.7 5.13333C19.4833 5.13333 23.2167 8.63333 23.2167 13.1833C23.2167 17.9667 20.1833 21.8167 15.9833 21.8167C14.5833 21.8167 13.3 21.1167 12.8333 20.1833L11.6667 23.5667C11.3167 24.85 10.5 26.4833 9.8 27.3Z" fill="#CCCCCC"/>
</svg>
