<svg width="28" height="28" viewBox="0 0 28 28" fill="none" xmlns="http://www.w3.org/2000/svg">
<path fill-rule="evenodd" clip-rule="evenodd" d="M19.25 9.04167V8.75H18.9583H16.9167V11.0833H19.25V9.04167Z" fill="#CCCCCC"/>
<path fill-rule="evenodd" clip-rule="evenodd" d="M14.0001 16.3917C15.2834 16.3917 16.3917 15.3417 16.3917 14.0001C16.3917 13.4751 16.2167 13.0084 15.9251 12.6001C15.5167 12.0167 14.7584 11.6084 14.0001 11.6084C13.2417 11.6084 12.4834 12.0167 12.0751 12.6001C11.7834 13.0084 11.6084 13.4751 11.6084 14.0001C11.6084 15.3417 12.7167 16.3917 14.0001 16.3917Z" fill="#CCCCCC"/>
<path d="M14 0C6.24167 0 0 6.24167 0 14C0 21.7583 6.24167 28 14 28C21.7583 28 28 21.7583 28 14C28 6.24167 21.7583 0 14 0ZM20.825 12.6V18.2C20.825 19.6583 19.6583 20.825 18.2 20.825H9.8C8.34167 20.825 7.175 19.6583 7.175 18.2V12.6V9.8C7.175 8.34167 8.34167 7.175 9.8 7.175H18.2C19.6583 7.175 20.825 8.34167 20.825 9.8V12.6Z" fill="#CCCCCC"/>
<path fill-rule="evenodd" clip-rule="evenodd" d="M17.7333 13.9996C17.7333 16.0413 16.0417 17.7329 14 17.7329C11.9583 17.7329 10.2667 16.0413 10.2667 13.9996C10.2667 13.5329 10.3833 13.0079 10.5583 12.5996H8.51666V18.1996C8.51666 18.8996 9.1 19.4829 9.8 19.4829H18.2C18.9 19.4829 19.4833 18.8996 19.4833 18.1996V12.5996H17.4417C17.6167 13.0079 17.7333 13.5329 17.7333 13.9996Z" fill="#CCCCCC"/>
</svg>
