<svg width="107" height="34" viewBox="0 0 107 34" fill="none" xmlns="http://www.w3.org/2000/svg">
<path fill-rule="evenodd" clip-rule="evenodd" d="M99.514 24.1458C98.6017 24.6242 97.684 25.1054 97.0811 25.4618L96.0427 23.7058C96.6656 23.3383 97.5201 22.893 98.3774 22.4462L98.3775 22.4462C99.2668 21.9827 100.159 21.5177 100.799 21.1364C101.02 21.0072 101.24 20.883 101.456 20.7614C102.34 20.2633 103.145 19.8092 103.619 19.2384C103.965 18.8381 104.17 18.3346 104.17 17.9085C104.183 17.4695 103.952 16.9401 103.568 16.514C103.158 16.0492 102.581 15.636 101.914 15.2487C101.594 15.0624 101.255 14.8822 100.912 14.6992C100.541 14.5017 100.165 14.3011 99.7989 14.0866C99.0361 13.6412 98.2701 13.1957 97.5042 12.7503C96.7382 12.3048 95.9722 11.8594 95.2094 11.4139C94.2379 10.8458 93.2616 10.2824 92.2835 9.71804L92.2828 9.71765L92.2821 9.71721C91.6602 9.35838 91.0375 8.99912 90.4149 8.63791C89.3574 8.02469 88.2999 7.40501 87.2425 6.78534L87.2422 6.7852L87.242 6.78506C86.1844 6.16531 85.1268 5.54555 84.0692 4.93226C83.7323 4.73248 83.3985 4.53036 83.0668 4.32954C82.0481 3.7127 81.0496 3.1081 80.0438 2.62107C79.6464 2.42739 79.2746 2.25954 78.9157 2.15625C78.6721 2.09169 78.4541 2.05296 78.2619 2.05296C78.0311 2.05296 77.8132 2.09169 77.5696 2.19498C77.0312 2.41448 76.6594 2.82766 76.4671 3.4345C76.2876 3.97679 76.2363 4.66111 76.2363 5.37125V10.4843V11.4914H74.2108V10.4843V5.35834C74.2108 4.57073 74.2493 3.67983 74.5313 2.78892C74.8775 1.67852 75.6851 0.735965 76.8132 0.284057C77.2876 0.0903815 77.7747 0 78.2619 0C78.6721 0 79.0823 0.0645583 79.4797 0.180763C80.0181 0.335703 80.4925 0.555202 80.9283 0.761788C82.0176 1.30086 83.0381 1.91613 84.025 2.5112L84.025 2.51121L84.025 2.51121L84.025 2.51122L84.0252 2.51131C84.3856 2.72862 84.7415 2.94323 85.0947 3.15045C86.1522 3.76364 87.2096 4.38329 88.267 5.00294L88.2671 5.00296L88.2676 5.00326L88.2679 5.00342C89.3254 5.62313 90.3829 6.24284 91.4405 6.8561C92.412 7.42426 93.3883 7.98759 94.3665 8.55201L94.3671 8.55237L94.3672 8.55241C94.9893 8.91137 95.6122 9.27076 96.235 9.6321C97.3514 10.2935 98.4746 10.948 99.5946 11.6006L99.5967 11.6018C100.007 11.8406 100.416 12.0792 100.824 12.3177C101.114 12.4877 101.434 12.6577 101.77 12.8357L101.77 12.8357L101.77 12.8357L101.77 12.8358C102.148 13.0364 102.546 13.2472 102.94 13.4798C103.683 13.9188 104.452 14.4352 105.081 15.1454C105.722 15.8555 106.196 16.811 106.209 17.8956V17.9085C106.209 18.9543 105.773 19.8711 105.17 20.5683C104.382 21.4718 103.411 22.0088 102.562 22.4788C102.307 22.62 102.062 22.7552 101.837 22.8924C101.254 23.2332 100.387 23.6882 99.5142 24.1457L99.514 24.1458ZM91.0433 29.4766C92.8765 28.7407 93.6457 26.5328 92.6842 24.7897C92.3637 24.1958 91.9151 23.7051 91.2613 23.4598C90.7356 23.2532 90.1716 23.1241 89.6075 23.0595C88.1333 22.8917 86.8513 22.3236 85.736 21.3423C85.3514 21.0066 84.9283 20.658 84.454 20.4643C82.1465 19.483 79.7236 21.3165 79.9415 23.8601C79.9533 23.986 79.9655 24.1124 79.9778 24.2391L79.9778 24.2392L79.9778 24.2393C80.0322 24.8011 80.0872 25.37 80.1082 25.9388C80.1466 27.0234 79.7236 27.9789 79.3005 28.9344C79.121 29.3346 78.9416 29.7478 78.8646 30.1739C78.6211 31.5038 79.2364 32.795 80.3902 33.5051C81.5183 34.2023 82.9541 34.1636 84.0181 33.376C84.4925 33.0274 84.9412 32.6658 85.3899 32.2914C86.3257 31.5167 87.3128 30.8453 88.4666 30.4192C88.8239 30.2849 89.1835 30.1573 89.5426 30.0299C90.0465 29.8511 90.5493 29.6727 91.0433 29.4766ZM74.6724 20.3746C74.1853 19.2384 73.9289 17.8697 74.2109 16.4236C74.4417 15.2358 75.198 14.8226 76.3133 15.2745C77.6466 15.8039 78.685 16.7206 79.4285 17.9343C80.2105 19.2126 79.7362 20.8911 78.4414 21.6141C77.121 22.3888 75.5185 21.924 74.6724 20.3746ZM83.9922 18.5547C85.5049 17.8446 86.069 16.179 85.1844 14.5908C84.7614 13.8936 84.0819 13.248 83.2999 12.6799C82.8128 12.3442 82.3 12.0472 81.7103 11.931C80.9796 11.789 80.4411 12.0601 80.1719 12.7703C80.0694 13.0414 79.9925 13.3384 79.9668 13.6354C79.8386 14.7845 80.0181 15.8949 80.4283 16.9795C80.9796 18.4514 82.6333 19.1874 83.9922 18.5547ZM91.7355 17.4693C92.4405 18.7346 92.1201 20.1291 90.9663 20.7876C89.6202 21.5752 87.9152 20.8392 87.5563 19.2769C87.3127 18.2181 87.3255 17.1465 87.6588 16.1006C87.6588 16.0942 87.662 16.0845 87.6652 16.0748C87.6684 16.0651 87.6716 16.0554 87.6716 16.049C88.0434 14.9644 88.7998 14.7062 89.7612 15.313C90.492 15.7649 91.2611 16.6042 91.7355 17.4693ZM72.8394 24.8039C72.865 25.7594 73.1599 26.6503 73.6214 27.5929C73.6434 27.6245 73.6685 27.6617 73.6961 27.7025C73.7811 27.8281 73.8899 27.989 74.006 28.1352C74.8136 29.0777 76.2494 29.1681 77.2365 28.3288C78.1595 27.5541 78.3005 26.0822 77.5185 25.1526C76.7622 24.2487 75.8007 23.6419 74.6726 23.332C73.4547 22.9834 72.8009 23.5257 72.8394 24.8039Z" fill="#E4831E"/>
<path d="M9.9986 22.0627C9.61535 21.0693 9.20473 19.938 8.76674 18.6687C8.34243 17.3856 7.95234 16.0542 7.59647 14.6745C7.2406 16.0542 6.85051 17.3856 6.42621 18.6687C6.0019 19.938 5.59812 21.0693 5.21488 22.0627H3.55186C2.92225 20.6416 2.30632 19.0205 1.70407 17.1993C1.10183 15.3781 0.533806 13.4121 0 11.3012H2.0531C2.18997 11.9496 2.35422 12.6533 2.54584 13.4121C2.73747 14.1709 2.93593 14.9297 3.14124 15.6886C3.36024 16.4474 3.58608 17.1786 3.81877 17.8823C4.05145 18.5859 4.27045 19.1999 4.47576 19.7241C4.70844 19.0757 4.93429 18.3927 5.15328 17.6753C5.38597 16.9441 5.60496 16.2128 5.81028 15.4816C6.01558 14.7366 6.20721 14.0122 6.38514 13.3086C6.57677 12.5912 6.74101 11.922 6.87789 11.3012H8.45877C8.58196 11.922 8.73252 12.5912 8.91046 13.3086C9.08839 14.0122 9.28001 14.7366 9.48532 15.4816C9.69063 16.2128 9.90279 16.9441 10.1218 17.6753C10.3545 18.3927 10.5872 19.0757 10.8198 19.7241C11.0251 19.1999 11.2373 18.5859 11.4563 17.8823C11.689 17.1786 11.9148 16.4474 12.1338 15.6886C12.3528 14.9297 12.5581 14.1709 12.7498 13.4121C12.9414 12.6533 13.1056 11.9496 13.2425 11.3012H15.2135C14.6797 13.4121 14.1116 15.3781 13.5094 17.1993C12.9072 19.0205 12.2912 20.6416 11.6616 22.0627H9.9986Z" fill="white"/>
<path d="M16.2266 16.7026C16.2266 15.7506 16.3634 14.9228 16.6372 14.2192C16.9109 13.5018 17.2736 12.9085 17.7253 12.4394C18.177 11.9703 18.6971 11.6185 19.2857 11.3839C19.8742 11.1494 20.4765 11.0321 21.0924 11.0321C22.5296 11.0321 23.6314 11.4874 24.3979 12.398C25.1644 13.2948 25.5476 14.6676 25.5476 16.5164C25.5476 16.5991 25.5476 16.7095 25.5476 16.8475C25.5476 16.9717 25.5408 17.0889 25.5271 17.1993H18.2181C18.3002 18.3169 18.6218 19.1654 19.183 19.7448C19.7442 20.3243 20.6202 20.614 21.811 20.614C22.4817 20.614 23.0428 20.5588 23.4945 20.4485C23.9599 20.3243 24.3089 20.207 24.5416 20.0966L24.8085 21.7109C24.5758 21.8351 24.1652 21.9661 23.5767 22.1041C23.0018 22.2421 22.3448 22.311 21.6057 22.311C20.6749 22.311 19.8674 22.1731 19.183 21.8971C18.5123 21.6074 17.958 21.2142 17.52 20.7175C17.082 20.2208 16.7535 19.6345 16.5345 18.9584C16.3292 18.2686 16.2266 17.5166 16.2266 16.7026ZM23.5561 15.6472C23.5698 14.778 23.3508 14.0674 22.8991 13.5156C22.4611 12.9499 21.852 12.667 21.0719 12.667C20.6339 12.667 20.2438 12.7567 19.9016 12.9361C19.5731 13.1016 19.2925 13.3224 19.0598 13.5983C18.8271 13.8743 18.6424 14.1916 18.5055 14.5503C18.3823 14.909 18.3002 15.2747 18.2591 15.6472H23.5561Z" fill="white"/>
<path d="M34.7782 13.5776C34.5456 13.3845 34.2102 13.1982 33.7722 13.0189C33.3342 12.8395 32.8552 12.7498 32.3351 12.7498C31.7876 12.7498 31.3153 12.8533 30.9184 13.0603C30.5352 13.2534 30.2204 13.5294 29.974 13.8881C29.7276 14.233 29.5497 14.6469 29.4402 15.1298C29.3307 15.6127 29.2759 16.1301 29.2759 16.6819C29.2759 17.9374 29.5839 18.9101 30.1998 19.6C30.8158 20.276 31.637 20.614 32.6635 20.614C33.1837 20.614 33.6148 20.5933 33.957 20.5519C34.3129 20.4968 34.5866 20.4416 34.7782 20.3864V13.5776ZM34.7782 6.3343L36.6876 6.00317V21.7523C36.2496 21.8764 35.6884 22.0006 35.0041 22.1248C34.3197 22.249 33.5327 22.311 32.643 22.311C31.8218 22.311 31.0827 22.18 30.4257 21.9178C29.7687 21.6557 29.2075 21.2832 28.7421 20.8003C28.2768 20.3174 27.914 19.731 27.654 19.0412C27.4076 18.3376 27.2844 17.5511 27.2844 16.6819C27.2844 15.8541 27.3871 15.0953 27.5924 14.4055C27.8114 13.7156 28.1262 13.1223 28.5368 12.6257C28.9474 12.129 29.447 11.7427 30.0356 11.4667C30.6378 11.1908 31.3222 11.0528 32.0887 11.0528C32.7046 11.0528 33.2453 11.1356 33.7106 11.3012C34.1897 11.4667 34.5456 11.6254 34.7782 11.7772V6.3343Z" fill="white"/>
<path d="M48.983 16.6819C48.983 17.5373 48.8598 18.31 48.6134 18.9998C48.367 19.6896 48.018 20.2829 47.5663 20.7796C47.1283 21.2763 46.6014 21.6626 45.9854 21.9385C45.3695 22.2007 44.6988 22.3317 43.9734 22.3317C43.248 22.3317 42.5773 22.2007 41.9614 21.9385C41.3454 21.6626 40.8116 21.2763 40.3599 20.7796C39.922 20.2829 39.5798 19.6896 39.3334 18.9998C39.087 18.31 38.9638 17.5373 38.9638 16.6819C38.9638 15.8403 39.087 15.0746 39.3334 14.3848C39.5798 13.6811 39.922 13.081 40.3599 12.5843C40.8116 12.0876 41.3454 11.7082 41.9614 11.446C42.5773 11.1701 43.248 11.0321 43.9734 11.0321C44.6988 11.0321 45.3695 11.1701 45.9854 11.446C46.6014 11.7082 47.1283 12.0876 47.5663 12.5843C48.018 13.081 48.367 13.6811 48.6134 14.3848C48.8598 15.0746 48.983 15.8403 48.983 16.6819ZM46.9915 16.6819C46.9915 15.4678 46.7177 14.5089 46.1702 13.8053C45.6364 13.0879 44.9041 12.7291 43.9734 12.7291C43.0427 12.7291 42.3036 13.0879 41.7561 13.8053C41.2222 14.5089 40.9553 15.4678 40.9553 16.6819C40.9553 17.8961 41.2222 18.8618 41.7561 19.5793C42.3036 20.2829 43.0427 20.6347 43.9734 20.6347C44.9041 20.6347 45.6364 20.2829 46.1702 19.5793C46.7177 18.8618 46.9915 17.8961 46.9915 16.6819Z" fill="white"/>
<path d="M57.9518 20.9865C57.7876 21.0969 57.4659 21.2418 56.9869 21.4211C56.5215 21.5867 55.974 21.6695 55.3444 21.6695C54.7011 21.6695 54.092 21.566 53.5171 21.3591C52.9559 21.1521 52.4632 20.8348 52.0389 20.4071C51.6146 19.9656 51.2792 19.4206 51.0329 18.7722C50.7865 18.1237 50.6633 17.3511 50.6633 16.4543C50.6633 15.6679 50.7796 14.9504 51.0123 14.302C51.245 13.6397 51.5804 13.0741 52.0184 12.605C52.47 12.1221 53.0175 11.7496 53.6608 11.4874C54.3041 11.2115 55.0296 11.0735 55.8371 11.0735C56.7268 11.0735 57.5001 11.1425 58.1571 11.2805C58.8278 11.4046 59.389 11.5219 59.8407 11.6323V21.2349C59.8407 22.8905 59.4164 24.0908 58.5677 24.8359C57.7191 25.5809 56.4325 25.9534 54.7079 25.9534C54.0372 25.9534 53.4008 25.8982 52.7985 25.7878C52.21 25.6775 51.6967 25.5464 51.2587 25.3946L51.6077 23.7183C51.991 23.8701 52.4563 24.0012 53.0038 24.1115C53.565 24.2357 54.1467 24.2978 54.749 24.2978C55.885 24.2978 56.6994 24.0701 57.1922 23.6148C57.6986 23.1595 57.9518 22.4352 57.9518 21.4418V20.9865ZM57.9313 12.9982C57.7397 12.943 57.4796 12.8947 57.1511 12.8533C56.8363 12.7981 56.4051 12.7705 55.8576 12.7705C54.8311 12.7705 54.0372 13.1085 53.4761 13.7846C52.9286 14.4606 52.6548 15.3574 52.6548 16.475C52.6548 17.0958 52.7301 17.627 52.8807 18.0685C53.0449 18.51 53.2571 18.8756 53.5171 19.1654C53.7909 19.4551 54.0988 19.6689 54.441 19.8069C54.7969 19.9449 55.1596 20.0139 55.5292 20.0139C56.0356 20.0139 56.501 19.9449 56.9253 19.8069C57.3496 19.6552 57.6849 19.4827 57.9313 19.2895V12.9982Z" fill="white"/>
</svg>
