<svg width="106" height="35" viewBox="0 0 106 35" fill="none" xmlns="http://www.w3.org/2000/svg">
    <path fill-rule="evenodd" clip-rule="evenodd"
        d="M99.2799 24.8431C98.3696 25.3215 97.4541 25.8027 96.8527 26.1591L95.8167 24.4031C96.4381 24.0356 97.2905 23.5903 98.1457 23.1436L98.1457 23.1436L98.1459 23.1435L98.146 23.1435L98.146 23.1434C99.0333 22.68 99.9235 22.215 100.562 21.8337C100.782 21.7047 101.001 21.5807 101.216 21.4594L101.217 21.459L101.217 21.4588L101.217 21.4587L101.217 21.4587C102.099 20.9605 102.902 20.5065 103.375 19.9357C103.721 19.5354 103.925 19.0318 103.925 18.6057C103.938 18.1668 103.708 17.6374 103.324 17.2113C102.915 16.7465 102.339 16.3333 101.674 15.9459C101.355 15.7597 101.017 15.5794 100.675 15.3965C100.305 15.199 99.9293 14.9984 99.5641 14.7839C98.8031 14.3384 98.0389 13.893 97.2747 13.4475C96.5106 13.0021 95.7464 12.5566 94.9854 12.1112C94.0161 11.543 93.042 10.9796 92.066 10.4151L92.0658 10.415L92.0657 10.4149C91.445 10.0559 90.8236 9.69653 90.2021 9.33517C89.147 8.72187 88.0919 8.10211 87.0367 7.48235C85.9816 6.86259 84.9265 6.24283 83.8713 5.62952C83.5352 5.42974 83.2022 5.22763 82.8714 5.02681C81.855 4.40996 80.8589 3.80536 79.8554 3.31833C79.459 3.12466 79.0881 2.95681 78.73 2.85351C78.487 2.78896 78.2695 2.75022 78.0777 2.75022C77.8475 2.75022 77.6301 2.78896 77.3871 2.89225C76.8499 3.11175 76.479 3.52492 76.2872 4.13177C76.1081 4.67406 76.057 5.35838 76.057 6.06852V11.1815V12.1887H74.0362V11.1815V6.05561C74.0362 5.268 74.0746 4.37709 74.356 3.48619C74.7013 2.37578 75.507 1.43323 76.6325 0.981322C77.1057 0.787647 77.5917 0.697266 78.0777 0.697266C78.487 0.697266 78.8962 0.761824 79.2927 0.878029C79.8299 1.03297 80.3031 1.25247 80.7379 1.45905C81.8246 1.99813 82.8427 2.6134 83.8273 3.20847L83.8273 3.20848C84.1869 3.42582 84.5421 3.64046 84.8945 3.84771C85.9496 4.46101 87.0047 5.08076 88.0599 5.70052L88.06 5.70059L88.06 5.70061L88.0601 5.70063L88.0601 5.70066L88.0601 5.70068C89.1152 6.32039 90.1703 6.94011 91.2253 7.55336C92.1948 8.12164 93.169 8.6851 94.1451 9.24963L94.1457 9.25002C94.7662 9.60887 95.3874 9.96814 96.0086 10.3294C97.1223 10.9907 98.2428 11.6452 99.3602 12.2978L99.3605 12.298C99.77 12.5371 100.179 12.7761 100.587 13.015C100.876 13.185 101.196 13.3549 101.53 13.5329L101.53 13.533L101.531 13.533L101.531 13.533L101.531 13.5331C101.908 13.7337 102.305 13.9445 102.697 14.177C103.439 14.616 104.207 15.1325 104.833 15.8427C105.473 16.5528 105.946 17.5083 105.959 18.5928V18.6057C105.959 19.6516 105.524 20.5683 104.923 21.2656C104.136 22.169 103.168 22.7061 102.321 23.176L102.32 23.176L102.32 23.1761L102.32 23.1761L102.32 23.1761C102.066 23.3173 101.822 23.4524 101.598 23.5897C101.016 23.9305 100.15 24.3855 99.2799 24.8431ZM90.829 30.1748C92.6579 29.4388 93.4253 27.2309 92.4661 25.4878C92.1464 24.8939 91.6987 24.4033 91.0465 24.1579C90.5221 23.9513 89.9594 23.8222 89.3966 23.7577C87.9258 23.5898 86.6469 23.0217 85.5342 22.0404C85.1505 21.7047 84.7284 21.3561 84.2552 21.1624C81.9531 20.1811 79.5359 22.0146 79.7533 24.5582C79.7651 24.684 79.7773 24.8103 79.7895 24.937L79.7895 24.9371L79.7895 24.9372L79.7895 24.9373L79.7896 24.9374L79.7896 24.9374C79.8438 25.4992 79.8987 26.0681 79.9196 26.637C79.958 27.7216 79.5359 28.677 79.1139 29.6325C78.9348 30.0328 78.7558 30.4459 78.679 30.872C78.436 32.2019 79.0499 33.4931 80.201 34.2032C81.3264 34.9005 82.7589 34.8617 83.8204 34.0741C84.2936 33.7255 84.7412 33.364 85.1889 32.9895C86.1225 32.2148 87.1073 31.5434 88.2584 31.1173C88.6148 30.9831 88.9735 30.8555 89.3317 30.7281L89.3318 30.728C89.8345 30.5492 90.3361 30.3708 90.829 30.1748ZM74.4967 21.0719C74.0107 19.9357 73.7549 18.5671 74.0363 17.121C74.2665 15.9331 75.0211 15.5199 76.1338 15.9718C77.4639 16.5012 78.4998 17.4179 79.2416 18.6316C80.0218 19.9099 79.5486 21.5884 78.2568 22.3115C76.9395 23.0862 75.3408 22.6213 74.4967 21.0719ZM83.7946 19.2512C85.3037 18.5411 85.8665 16.8755 84.984 15.2873C84.5619 14.5901 83.8841 13.9445 83.1039 13.3764C82.6179 13.0407 82.1064 12.7437 81.518 12.6275C80.789 12.4855 80.2519 12.7566 79.9833 13.4668C79.881 13.7379 79.8042 14.0349 79.7787 14.3319C79.6508 15.481 79.8298 16.5914 80.2391 17.676C80.789 19.1479 82.4389 19.8839 83.7946 19.2512ZM91.5196 18.1667C92.223 19.432 91.9033 20.8265 90.7522 21.485C89.4093 22.2726 87.7083 21.5366 87.3502 19.9743C87.1072 18.9156 87.12 17.8439 87.4525 16.798C87.4525 16.7916 87.4557 16.7819 87.4589 16.7722C87.4621 16.7625 87.4653 16.7528 87.4653 16.7464C87.8362 15.6618 88.5908 15.4036 89.55 16.0104C90.279 16.4623 91.0464 17.3016 91.5196 18.1667ZM72.668 25.5006C72.6936 26.4561 72.9877 27.347 73.4481 28.2895C73.4701 28.3212 73.4952 28.3583 73.5227 28.3992C73.6075 28.5248 73.716 28.6857 73.8318 28.8318C74.6376 29.7744 76.07 29.8648 77.0548 29.0255C77.9756 28.2508 78.1163 26.7789 77.3361 25.8492C76.5816 24.9454 75.6224 24.3386 74.4969 24.0287C73.2819 23.6801 72.6296 24.2224 72.668 25.5006Z"
        fill="#E4831E" />
    <path
        d="M9.97507 22.7597C9.59273 21.7663 9.18308 20.635 8.74611 19.3657C8.3228 18.0826 7.93363 16.7512 7.5786 15.3715C7.22356 16.7512 6.83439 18.0826 6.41108 19.3657C5.98778 20.635 5.58495 21.7663 5.20261 22.7597H3.54351C2.91537 21.3386 2.30089 19.7175 1.70006 17.8963C1.09924 16.0752 0.53255 14.1091 0 11.9982H2.04827C2.18482 12.6466 2.34868 13.3503 2.53985 14.1091C2.73103 14.8679 2.92903 15.6268 3.13385 16.3856C3.35233 17.1444 3.57764 17.8756 3.80978 18.5793C4.04192 19.2829 4.2604 19.8969 4.46523 20.4212C4.69737 19.7727 4.92268 19.0898 5.14116 18.3723C5.37329 17.6411 5.59178 16.9099 5.7966 16.1786C6.00143 15.4336 6.1926 14.7093 6.37012 14.0056C6.56129 13.2882 6.72515 12.619 6.8617 11.9982H8.43887C8.56177 12.619 8.71197 13.2882 8.88949 14.0056C9.06701 14.7093 9.25818 15.4336 9.46301 16.1786C9.66783 16.9099 9.87949 17.6411 10.098 18.3723C10.3301 19.0898 10.5622 19.7727 10.7944 20.4212C10.9992 19.8969 11.2109 19.2829 11.4293 18.5793C11.6615 17.8756 11.8868 17.1444 12.1053 16.3856C12.3238 15.6268 12.5286 14.8679 12.7198 14.1091C12.9109 13.3503 13.0748 12.6466 13.2113 11.9982H15.1777C14.6451 14.1091 14.0784 16.0752 13.4776 17.8963C12.8768 19.7175 12.2623 21.3386 11.6342 22.7597H9.97507Z"
        fill="#1D1E1F" />
    <path
        d="M16.1884 17.3996C16.1884 16.4477 16.3249 15.6199 16.598 14.9162C16.8711 14.1988 17.233 13.6055 17.6836 13.1364C18.1342 12.6673 18.6531 12.3155 19.2403 12.081C19.8275 11.8464 20.4283 11.7291 21.0428 11.7291C22.4766 11.7291 23.5758 12.1844 24.3405 13.095C25.1052 13.9918 25.4875 15.3646 25.4875 17.2134C25.4875 17.2962 25.4875 17.4065 25.4875 17.5445C25.4875 17.6687 25.4807 17.786 25.467 17.8963H18.1752C18.2571 19.0139 18.578 19.8624 19.1379 20.4419C19.6977 21.0213 20.5717 21.3111 21.7597 21.3111C22.4288 21.3111 22.9886 21.2559 23.4392 21.1455C23.9035 21.0213 24.2517 20.904 24.4839 20.7937L24.7501 22.4079C24.518 22.5321 24.1083 22.6631 23.5212 22.8011C22.9477 22.9391 22.2922 23.0081 21.5548 23.0081C20.6263 23.0081 19.8206 22.8701 19.1379 22.5942C18.4688 22.3044 17.9157 21.9112 17.4788 21.4145C17.0418 20.9178 16.7141 20.3315 16.4956 19.6554C16.2908 18.9656 16.1884 18.2137 16.1884 17.3996ZM23.5007 16.3442C23.5144 15.475 23.2959 14.7644 22.8452 14.2126C22.4083 13.6469 21.8006 13.3641 21.0223 13.3641C20.5853 13.3641 20.1962 13.4537 19.8548 13.6331C19.5271 13.7987 19.2471 14.0194 19.015 14.2954C18.7828 14.5713 18.5985 14.8886 18.462 15.2473C18.3391 15.6061 18.2571 15.9717 18.2162 16.3442H23.5007Z"
        fill="#1D1E1F" />
    <path
        d="M34.6964 14.2747C34.4643 14.0815 34.1297 13.8952 33.6928 13.7159C33.2558 13.5365 32.7779 13.4469 32.259 13.4469C31.7128 13.4469 31.2417 13.5503 30.8457 13.7573C30.4633 13.9504 30.1493 14.2264 29.9035 14.5851C29.6577 14.93 29.4802 15.3439 29.3709 15.8268C29.2617 16.3097 29.207 16.8271 29.207 17.379C29.207 18.6345 29.5143 19.6071 30.1288 20.297C30.7432 20.973 31.5626 21.3111 32.5867 21.3111C33.1056 21.3111 33.5357 21.2904 33.8771 21.249C34.2321 21.1938 34.5052 21.1386 34.6964 21.0834V14.2747ZM34.6964 7.03132L36.6013 6.7002V22.4493C36.1643 22.5735 35.6045 22.6976 34.9217 22.8218C34.239 22.946 33.4538 23.0081 32.5662 23.0081C31.7469 23.0081 31.0095 22.877 30.3541 22.6149C29.6986 22.3527 29.1388 21.9802 28.6745 21.4973C28.2102 21.0144 27.8484 20.4281 27.5889 19.7382C27.3431 19.0346 27.2202 18.2482 27.2202 17.379C27.2202 16.5511 27.3226 15.7923 27.5275 15.1025C27.7459 14.4126 28.06 13.8194 28.4697 13.3227C28.8793 12.826 29.3777 12.4397 29.9649 12.1637C30.5657 11.8878 31.2485 11.7498 32.0132 11.7498C32.6277 11.7498 33.167 11.8326 33.6313 11.9982C34.1092 12.1637 34.4643 12.3224 34.6964 12.4742V7.03132Z"
        fill="#1D1E1F" />
    <path
        d="M48.8677 17.379C48.8677 18.2344 48.7448 19.007 48.499 19.6968C48.2532 20.3867 47.905 20.9799 47.4544 21.4766C47.0174 21.9733 46.4917 22.3596 45.8772 22.6355C45.2628 22.8977 44.5937 23.0288 43.8699 23.0288C43.1462 23.0288 42.4771 22.8977 41.8626 22.6355C41.2482 22.3596 40.7156 21.9733 40.265 21.4766C39.828 20.9799 39.4866 20.3867 39.2409 19.6968C38.9951 19.007 38.8722 18.2344 38.8722 17.379C38.8722 16.5373 38.9951 15.7716 39.2409 15.0818C39.4866 14.3781 39.828 13.778 40.265 13.2813C40.7156 12.7846 41.2482 12.4052 41.8626 12.143C42.4771 11.8671 43.1462 11.7291 43.8699 11.7291C44.5937 11.7291 45.2628 11.8671 45.8772 12.143C46.4917 12.4052 47.0174 12.7846 47.4544 13.2813C47.905 13.778 48.2532 14.3781 48.499 15.0818C48.7448 15.7716 48.8677 16.5373 48.8677 17.379ZM46.8809 17.379C46.8809 16.1648 46.6078 15.2059 46.0616 14.5023C45.529 13.7849 44.7985 13.4262 43.8699 13.4262C42.9414 13.4262 42.204 13.7849 41.6578 14.5023C41.1253 15.2059 40.859 16.1648 40.859 17.379C40.859 18.5931 41.1253 19.5589 41.6578 20.2763C42.204 20.9799 42.9414 21.3317 43.8699 21.3317C44.7985 21.3317 45.529 20.9799 46.0616 20.2763C46.6078 19.5589 46.8809 18.5931 46.8809 17.379Z"
        fill="#1D1E1F" />
    <path
        d="M57.8155 21.6836C57.6516 21.7939 57.3307 21.9388 56.8528 22.1182C56.3885 22.2837 55.8423 22.3665 55.2142 22.3665C54.5724 22.3665 53.9647 22.263 53.3912 22.0561C52.8313 21.8491 52.3397 21.5318 51.9164 21.1041C51.4931 20.6626 51.1586 20.1176 50.9128 19.4692C50.667 18.8207 50.5441 18.0481 50.5441 17.1513C50.5441 16.3649 50.6602 15.6474 50.8923 14.999C51.1244 14.3367 51.459 13.7711 51.896 13.302C52.3466 12.8191 52.8928 12.4466 53.5346 12.1844C54.1764 11.9085 54.9001 11.7705 55.7057 11.7705C56.5933 11.7705 57.3648 11.8395 58.0203 11.9775C58.6894 12.1017 59.2492 12.2189 59.6999 12.3293V21.9319C59.6999 23.5875 59.2766 24.7879 58.4299 25.5329C57.5833 26.2779 56.2997 26.6504 54.5792 26.6504C53.9101 26.6504 53.2751 26.5952 52.6743 26.4849C52.0871 26.3745 51.5751 26.2434 51.1381 26.0917L51.4863 24.4153C51.8686 24.5671 52.3329 24.6982 52.8791 24.8086C53.439 24.9327 54.0193 24.9948 54.6202 24.9948C55.7535 24.9948 56.566 24.7672 57.0576 24.3119C57.5628 23.8566 57.8155 23.1322 57.8155 22.1389V21.6836ZM57.795 13.6952C57.6038 13.64 57.3444 13.5917 57.0166 13.5503C56.7026 13.4951 56.2724 13.4675 55.7262 13.4675C54.7021 13.4675 53.9101 13.8056 53.3502 14.4816C52.804 15.1577 52.5309 16.0545 52.5309 17.172C52.5309 17.7929 52.606 18.324 52.7562 18.7655C52.9201 19.207 53.1317 19.5726 53.3912 19.8624C53.6643 20.1521 53.9715 20.366 54.3129 20.5039C54.6679 20.6419 55.0298 20.7109 55.3985 20.7109C55.9037 20.7109 56.368 20.6419 56.7913 20.5039C57.2146 20.3522 57.5492 20.1797 57.795 19.9866V13.6952Z"
        fill="#1D1E1F" />
</svg>